<?xml version="1.0" encoding="UTF-8"?>
<!DOCTYPE svg PUBLIC "-//W3C//DTD SVG 1.1//EN" "http://www.w3.org/Graphics/SVG/1.1/DTD/svg11.dtd">
<svg version="1.1" xmlns="http://www.w3.org/2000/svg" xmlns:xlink="http://www.w3.org/1999/xlink" x="0px" y="0px" width="612" height="792" viewBox="0, 0, 612, 792">
  <g id="Layer 1">
    <g>
      <path d="M254.5,391.5 z" fill="#FFFFFF"/>
      <path d="M254.5,391.5 z" fill-opacity="0" stroke="#000000" stroke-width="1"/>
    </g>
    <path d="M294.412,359.198 C344.119,359.198 384.414,391.418 384.414,431.162 C384.487,434.445 383.95,437.678 383.528,440.923 C418.255,454.698 437.599,478.208 440.125,514.399 C440.125,558.901 397.265,594.977 344.393,594.977 C332.067,595.091 320.164,592.41 308.479,588.971 C294.751,593.214 280.429,594.679 266.077,594.977 C252.012,595.274 238.281,592.697 224.777,589.252 C213.667,593.425 201.613,594.206 189.829,594.977 C140.142,594.977 99.863,564.189 99.863,526.21 C99.915,504.01 113.959,485.332 132.602,473.146 C135.672,471.139 139.145,469.768 142.417,468.08 C151.263,433.071 182.412,407.014 216.764,395.095 C229.131,378.593 247.114,367.5 267.649,362.434 C273.399,361.015 279.356,360.525 285.21,359.57 z" fill="#DBF6FF"/>
    <path d="M257.561,552.214 L300.531,552.214 L300.488,512.744 L343.516,512.744 L343.516,473.181 L300.488,473.181 L300.531,433.711 L257.561,433.711 L257.604,473.181 L214.597,473.181 L214.597,512.744 L257.604,512.744 z" fill="#43D1FF"/>
  </g>
  <defs/>
</svg>
